<svg width="480" height="1920" viewBox="0 0 480 1920" xmlns="http://www.w3.org/2000/svg">
  <defs>
    <linearGradient id="bg" x1="0" y1="0" x2="0" y2="1">
      <stop offset="0" stop-color="#FBFFF9"/>
      <stop offset="0.46" stop-color="#E8FAEF"/>
      <stop offset="1" stop-color="#DDF6EA"/>
    </linearGradient>
    <linearGradient id="wash" x1="0" y1="0" x2="1" y2="1">
      <stop offset="0" stop-color="#FFFFFF" stop-opacity="0.86"/>
      <stop offset="1" stop-color="#DDF8EA" stop-opacity="0.94"/>
    </linearGradient>
    <linearGradient id="cpu" x1="0" y1="0" x2="1" y2="0">
      <stop offset="0" stop-color="#42E983"/>
      <stop offset="1" stop-color="#29C7FF"/>
    </linearGradient>
    <linearGradient id="gpu" x1="0" y1="0" x2="1" y2="0">
      <stop offset="0" stop-color="#FF5AC8"/>
      <stop offset="1" stop-color="#8A7CFF"/>
    </linearGradient>
    <linearGradient id="sun" x1="0" y1="0" x2="1" y2="1">
      <stop offset="0" stop-color="#FFE989"/>
      <stop offset="1" stop-color="#FFB74D"/>
    </linearGradient>
    <filter id="softShadow" x="-20%" y="-20%" width="140%" height="140%">
      <feDropShadow dx="0" dy="8" stdDeviation="10" flood-color="#4D8B74" flood-opacity="0.13"/>
    </filter>
    <style>
      text { font-family: Inter, "Segoe UI", Arial, sans-serif; letter-spacing: 0; }
      .mono { font-family: "JetBrains Mono", Consolas, monospace; }
      .ink { fill: #143F34; }
      .sub { fill: #5C8378; }
      .thin { stroke: #B8EBD2; stroke-width: 1; }
      .line { stroke: #7FDDB4; stroke-width: 2; }
      .panel { fill: url(#wash); stroke: #9BE4C3; stroke-width: 1.4; filter: url(#softShadow); }
      .panelFlat { fill: #F7FFF9; stroke: #A7E8C9; stroke-width: 1.4; }
      .pill { fill: #ECFFF5; stroke: #A7E8C9; stroke-width: 1.2; }
    </style>
  </defs>

  <rect width="480" height="1920" fill="url(#bg)"/>
  <path d="M0 0H480V1920H0Z" fill="none" stroke="#A7E8C9" stroke-width="18" opacity="0.38"/>
  <path d="M36 28H444V1892H36Z" fill="none" stroke="#D7F7E5" stroke-width="1"/>

  <g id="header">
    <text x="34" y="66" class="ink" font-size="31" font-weight="850">副屏监控</text>
    <text x="34" y="94" class="sub" font-size="14" font-weight="700">性能 · 温度 · 帧率 · 存储 · 网络</text>
    <text x="324" y="61" class="sub mono" font-size="13" font-weight="700">SUN 2026.07.05</text>
    <text x="330" y="96" class="ink mono" font-size="28" font-weight="850">08:45</text>
    <line x1="34" y1="122" x2="446" y2="122" stroke="#7FDDB4" stroke-width="2"/>
  </g>

  <g id="weather" filter="url(#softShadow)">
    <rect x="34" y="148" width="412" height="92" rx="18" fill="#F8FFF9" stroke="#A7E8C9" stroke-width="1.4"/>
    <circle cx="76" cy="194" r="23" fill="url(#sun)"/>
    <circle cx="86" cy="202" r="15" fill="#F8FFF9" opacity="0.55"/>
    <text x="118" y="188" class="ink" font-size="25" font-weight="850">北京 31° 晴</text>
    <text x="119" y="216" class="sub" font-size="15" font-weight="700">风 2级 · AQI 38 · 湿度 41%</text>
    <text x="366" y="205" class="sub mono" font-size="18" font-weight="800">LIVE</text>
  </g>

  <g id="hero">
    <rect x="34" y="270" width="412" height="308" rx="24" class="panel"/>
    <text x="58" y="316" class="sub mono" font-size="13" font-weight="800">SYSTEM LOAD</text>
    <text x="58" y="404" class="ink" font-size="82" font-weight="900">32</text>
    <text x="156" y="394" class="sub" font-size="30" font-weight="850">%</text>
    <text x="58" y="444" class="sub" font-size="16" font-weight="750">CPU PACKAGE</text>
    <text x="252" y="347" class="ink mono" font-size="26" font-weight="850">63°C</text>
    <text x="252" y="389" class="ink mono" font-size="26" font-weight="850">145W</text>
    <text x="252" y="431" class="ink mono" font-size="26" font-weight="850">5557M</text>
    <rect x="58" y="496" width="350" height="10" rx="5" fill="#D7F7E5"/>
    <rect x="58" y="496" width="112" height="10" rx="5" fill="url(#cpu)"/>
    <path d="M58 540 C86 504 112 546 140 516 C169 484 198 548 226 516 C254 486 282 546 310 518 C339 488 366 532 408 508"
          fill="none" stroke="#29C7FF" stroke-width="4" stroke-linecap="round"/>
  </g>

  <g id="gpu">
    <rect x="34" y="606" width="198" height="268" rx="22" class="panelFlat"/>
    <text x="56" y="649" class="sub mono" font-size="12" font-weight="800">GPU SPECTRUM</text>
    <text x="56" y="729" fill="#D63FB5" font-size="68" font-weight="900">17</text>
    <text x="138" y="720" class="sub" font-size="25" font-weight="850">%</text>
    <text x="58" y="779" class="ink mono" font-size="21" font-weight="850">54°C</text>
    <text x="58" y="815" class="ink mono" font-size="21" font-weight="850">154W</text>
    <text x="58" y="849" class="ink mono" font-size="18" font-weight="850">16401M</text>
    <rect x="56" y="852" width="134" height="7" rx="4" fill="url(#gpu)" opacity="0.8"/>

    <rect x="248" y="606" width="198" height="268" rx="22" class="panelFlat"/>
    <text x="270" y="649" class="sub mono" font-size="12" font-weight="800">FRAME PACE</text>
    <text x="270" y="729" class="ink" font-size="68" font-weight="900">142</text>
    <text x="270" y="766" class="sub" font-size="20" font-weight="850">FPS NOW</text>
    <text x="270" y="814" class="ink mono" font-size="22" font-weight="850">7.0ms</text>
    <text x="270" y="850" class="ink mono" font-size="19" font-weight="850">1%LOW 118</text>
  </g>

  <g id="memory">
    <rect x="34" y="902" width="412" height="202" rx="22" class="panel"/>
    <text x="58" y="944" class="sub mono" font-size="13" font-weight="800">MEMORY / BUS</text>
    <text x="58" y="1004" class="ink mono" font-size="27" font-weight="850">RAM</text>
    <text x="168" y="1004" class="ink mono" font-size="27" font-weight="850">34%</text>
    <rect x="264" y="982" width="136" height="18" rx="9" fill="#D7F7E5"/>
    <rect x="264" y="982" width="46" height="18" rx="9" fill="#42E983"/>
    <text x="58" y="1058" class="ink mono" font-size="27" font-weight="850">VRAM</text>
    <text x="168" y="1058" class="ink mono" font-size="27" font-weight="850">14%</text>
    <rect x="264" y="1036" width="136" height="18" rx="9" fill="#D7F7E5"/>
    <rect x="264" y="1036" width="24" height="18" rx="9" fill="#D63FB5"/>
  </g>

  <g id="disks">
    <rect x="34" y="1132" width="412" height="306" rx="22" class="panelFlat"/>
    <text x="58" y="1174" class="sub" font-size="14" font-weight="800">当前盘符 / 自动识别插拔</text>

    <text x="58" y="1215" class="ink mono" font-size="16" font-weight="850">C Win11</text>
    <rect x="158" y="1201" width="200" height="11" rx="6" fill="#D7F7E5"/>
    <rect x="158" y="1201" width="87" height="11" rx="6" fill="#29C7FF"/>
    <text x="374" y="1215" class="ink mono" font-size="16" font-weight="850">44%</text>

    <text x="58" y="1247" class="ink mono" font-size="16" font-weight="850">D game</text>
    <rect x="158" y="1233" width="200" height="11" rx="6" fill="#D7F7E5"/>
    <rect x="158" y="1233" width="140" height="11" rx="6" fill="#42E983"/>
    <text x="374" y="1247" class="ink mono" font-size="16" font-weight="850">70%</text>

    <text x="58" y="1279" class="ink mono" font-size="16" font-weight="850">E software</text>
    <rect x="158" y="1265" width="200" height="11" rx="6" fill="#D7F7E5"/>
    <rect x="158" y="1265" width="69" height="11" rx="6" fill="#42E983"/>
    <text x="374" y="1279" class="ink mono" font-size="16" font-weight="850">35%</text>

    <text x="58" y="1311" class="ink mono" font-size="16" font-weight="850">F RECOVER</text>
    <rect x="158" y="1297" width="200" height="11" rx="6" fill="#D7F7E5"/>
    <rect x="158" y="1297" width="2" height="11" rx="6" fill="#FFB74D"/>
    <text x="374" y="1311" class="ink mono" font-size="16" font-weight="850">0%</text>

    <text x="58" y="1343" class="ink mono" font-size="16" font-weight="850">G data</text>
    <rect x="158" y="1329" width="200" height="11" rx="6" fill="#D7F7E5"/>
    <rect x="158" y="1329" width="127" height="11" rx="6" fill="#29C7FF"/>
    <text x="374" y="1343" class="ink mono" font-size="16" font-weight="850">64%</text>

    <text x="58" y="1375" class="ink mono" font-size="16" font-weight="850">H 1871</text>
    <rect x="158" y="1361" width="200" height="11" rx="6" fill="#D7F7E5"/>
    <rect x="158" y="1361" width="33" height="11" rx="6" fill="#D63FB5"/>
    <text x="374" y="1375" class="ink mono" font-size="16" font-weight="850">17%</text>

    <text x="58" y="1407" class="ink mono" font-size="16" font-weight="850">Z RAMDISK</text>
    <rect x="158" y="1393" width="200" height="11" rx="6" fill="#D7F7E5"/>
    <rect x="158" y="1393" width="6" height="11" rx="6" fill="#D63FB5"/>
    <text x="374" y="1407" class="ink mono" font-size="16" font-weight="850">3%</text>

    <text x="58" y="1429" class="ink mono" font-size="19" font-weight="850">网络  ↓10KB/s   ↑22KB/s</text>
  </g>

  <g id="process">
    <rect x="34" y="1458" width="412" height="310" rx="22" class="panel"/>
    <text x="58" y="1500" class="sub" font-size="14" font-weight="800">应用排行 / 每行显示 CPU · GPU · RAM</text>
    <text x="266" y="1534" class="sub mono" font-size="12" font-weight="850">CPU</text>
    <text x="328" y="1534" class="sub mono" font-size="12" font-weight="850">GPU</text>
    <text x="390" y="1534" class="sub mono" font-size="12" font-weight="850">RAM</text>

    <text x="58" y="1568" class="ink mono" font-size="18" font-weight="850">
      <tspan x="58" dy="0">VeryLongGameName</tspan>
      <tspan x="58" dy="22">-Shipping.exe</tspan>
    </text>
    <text x="266" y="1581" fill="#24A86A" class="mono" font-size="18" font-weight="850">18%</text>
    <text x="328" y="1581" fill="#D63FB5" class="mono" font-size="18" font-weight="850">62%</text>
    <text x="390" y="1581" fill="#1295C6" class="mono" font-size="18" font-weight="850">3.1G</text>
    <line x1="58" y1="1618" x2="422" y2="1618" class="thin"/>

    <text x="58" y="1650" class="ink mono" font-size="18" font-weight="850">
      <tspan x="58" dy="0">chrome.exe</tspan>
      <tspan x="58" dy="22">browser</tspan>
    </text>
    <text x="266" y="1663" fill="#24A86A" class="mono" font-size="18" font-weight="850">06%</text>
    <text x="328" y="1663" fill="#D63FB5" class="mono" font-size="18" font-weight="850">03%</text>
    <text x="390" y="1663" fill="#1295C6" class="mono" font-size="18" font-weight="850">3.1G</text>
    <line x1="58" y1="1700" x2="422" y2="1700" class="thin"/>

    <text x="58" y="1728" class="ink mono" font-size="18" font-weight="850">
      <tspan x="58" dy="0">python.exe</tspan>
      <tspan x="58" dy="22">metrics_agent</tspan>
    </text>
    <text x="266" y="1741" fill="#24A86A" class="mono" font-size="18" font-weight="850">02%</text>
    <text x="328" y="1741" fill="#D63FB5" class="mono" font-size="18" font-weight="850">00%</text>
    <text x="390" y="1741" fill="#1295C6" class="mono" font-size="18" font-weight="850">0.4G</text>
  </g>

  <g id="health">
    <rect x="34" y="1780" width="412" height="92" rx="20" fill="#F8FFF9" stroke="#A7E8C9" stroke-width="1.4"/>
    <text x="58" y="1820" class="ink" font-size="20" font-weight="850">系统延迟 430us · 硬缺页 0/s</text>
    <text x="58" y="1854" class="sub" font-size="18" font-weight="850">刷新 0.5s · 温度/功耗状态正常</text>
  </g>
</svg>
